<svg width="310" height="62" xmlns="http://www.w3.org/2000/svg">
 <defs>
  <radialGradient gradientUnits="userSpaceOnUse" gradientTransform="matrix(33.76789855957031,0,0,33.768001556396484,-8862.4033203125,-30115.03921878338)" r="1.5171" cy="892.1639" cx="264.198" id="SVGID_1_">
   <stop stop-color="#FFFFFF" offset="0"/>
   <stop stop-color="#EBF8FD" offset="0.0598"/>
   <stop stop-color="#B6E7F7" offset="0.1829"/>
   <stop stop-color="#60CCEE" offset="0.3589"/>
   <stop stop-color="#00ADE4" offset="0.544"/>
   <stop stop-color="#002345" offset="1"/>
  </radialGradient>
 </defs>
 <g>
  <title>Layer 1</title>
  <path id="svg_1" d="m68.62,13.78l15.61,0l0,3.2l-5.73,0l0,16.06l-4.14,0l0,-16.06l-5.74,0l0,-3.2zm21.94,19.26l0,-8.46l7.33,0l0,8.46l4.14,0l0,-19.26l-4.19,0l0,7.6l-7.28,0l0,-7.6l-4.14,0l0,19.26l4.14,0zm14.83,0l13.21,0l0,-3.2l-9.07,0l0,-5.15l8.22,0l0,-3.2l-8.22,0l0,-4.51l8.78,0l0,-3.2l-12.92,0l0,19.26zm29.73,-4.77l-0.05,0l-2.96,-14.49l-4.27,0l4.7,19.26l4.69,0l3.74,-14.67l0.05,0l3.47,14.67l4.58,0l4.91,-19.26l-3.95,0l-3.1,14.49l-0.05,0l-3.36,-14.49l-4.66,0l-3.74,14.49zm20.26,-4.85c0,5.68 2.88,10.03 9.26,10.03c6.37,0 9.26,-4.34 9.26,-10.03c0,-5.68 -2.88,-10.03 -9.26,-10.03c-6.38,-0.01 -9.26,4.34 -9.26,10.03m4.4,0c0,-3.31 0.78,-7.05 4.86,-7.05s4.86,3.74 4.86,7.05c0,3.3 -0.78,7.04 -4.86,7.04s-4.86,-3.74 -4.86,-7.04m20.98,1.86l4.38,0c1.36,0.05 1.62,1.52 1.73,2.59c0.18,1.74 0.37,3.47 0.72,5.17l4.56,0c-0.77,-1.07 -0.93,-3.33 -1.12,-4.56c-0.35,-2.67 -0.35,-4.62 -3.52,-4.96l0,-0.05c2.38,-0.5 4,-2.16 4,-4.67c0,-3.92 -3.39,-4.99 -6.7,-5.02l-8.19,0l0,19.26l4.14,0l0,-7.76zm0,-8.3l3.46,0c1.82,0.03 2.88,0.75 2.88,2.45c0,1.71 -1.07,2.61 -2.88,2.64l-3.46,0l0,-5.09zm26.39,16.06l0,-3.2l-8.35,0l0,-16.06l-4.13,0l0,19.26l12.48,0zm2.24,0l6.56,0c6,0.05 9.74,-2.93 9.74,-9.63c0,-6.7 -3.74,-9.69 -9.74,-9.63l-6.56,0l0,19.26zm4.14,-16.06l2.14,0c4.91,-0.05 5.63,3.36 5.63,6.43c0,3.06 -0.72,6.48 -5.63,6.43l-2.14,0l0,-12.86zm29.92,16.06c2.96,0.21 7.76,-1.17 7.76,-4.99c0,-2.82 -1.81,-4.5 -4.24,-5.01l0,-0.05c1.92,-0.64 3.39,-2.11 3.39,-4.21c0,-3.76 -3.52,-5.2 -6.96,-4.99l-7.23,0l0,19.26l7.28,0l0,-0.01zm-3.16,-3.2l0,-5.12l3.23,0c1.95,0 3.28,0.35 3.28,2.56c0,2.22 -1.33,2.56 -3.28,2.56l-3.23,0zm0,-8.32l0,-4.54l3.23,0c1.73,0 2.69,0.72 2.69,2.27c0,1.55 -0.96,2.27 -2.69,2.27l-3.23,0zm16.15,11.52l1.44,-4.08l7.63,0l1.39,4.08l4.16,0l-6.69,-19.26l-4.91,0l-6.97,19.26l3.95,0zm2.51,-7.28l2.82,-8.22l0.06,0l2.64,8.22l-5.52,0zm31.62,7.28l0,-19.26l-3.87,0l0,15.1l-0.05,0.06l-7.34,-15.15l-6.13,0l0,19.26l3.87,0l0,-15.96l0.05,-0.06l7.6,16.01l5.87,0zm7.53,-19.26l-4.13,0l0,19.26l4.13,0l0,-9.82l0.05,0l6.7,9.82l5.15,0l-7.68,-10.64l7.07,-8.62l-4.83,0l-6.4,8.33l-0.05,0l0,-8.33l-0.01,0z" fill="#002345"/>
  <path id="svg_2" d="m57.5,18.12c-0.73,0.31 -1.07,1.15 -0.76,1.88c1.46,3.45 2.2,7.13 2.2,10.91c0,2.32 -0.29,4.57 -0.83,6.73c-0.42,1.36 -1.17,2.62 -2.2,3.76c0.02,-0.49 0.04,-0.98 0.04,-1.48c0.01,-5.52 -1.51,-11.34 -4.34,-16.82c2.07,-1.78 3.39,-3.98 3.85,-6.44c0.14,-0.78 -0.37,-1.53 -1.15,-1.68c-0.78,-0.15 -1.53,0.37 -1.67,1.15c-0.3,1.63 -1.15,3.12 -2.47,4.39c-0.41,-0.68 -0.84,-1.35 -1.29,-2.02c-2.52,-3.7 -5.52,-6.9 -8.8,-9.45c4.33,0.28 8.33,1.34 11.56,3.14c0.51,0.29 1.18,0.28 1.65,-0.12c0.61,-0.51 0.69,-1.42 0.18,-2.03c-4.63,-6.47 -12.64,-10.04 -22.56,-10.04c-17.04,0 -30.91,13.87 -30.91,30.91c0,2.94 0.42,5.78 1.19,8.47c0.05,0.18 0.09,0.36 0.14,0.54c0.01,0.04 0.03,0.07 0.04,0.1c3.9,12.6 15.66,21.79 29.53,21.79c6.42,0 12.38,-1.97 17.33,-5.33c0.05,-0.03 0.1,-0.05 0.14,-0.08c0.3,-0.2 0.58,-0.41 0.86,-0.63c5.68,-4.2 9.89,-10.3 11.65,-17.36c0.1,-0.32 0.19,-0.66 0.26,-0.99c0.02,-0.08 0.02,-0.16 0.03,-0.24c0.42,-2.03 0.64,-4.13 0.64,-6.28c0,-4.17 -0.82,-8.22 -2.43,-12.03c-0.3,-0.72 -1.15,-1.06 -1.88,-0.75zm-10.99,2.01c0.47,0.7 0.92,1.4 1.35,2.12c-2.3,1.33 -5.2,2.12 -8.34,2.35c-0.27,-4.96 -0.85,-9.74 -1.79,-13.71c3.27,2.43 6.27,5.57 8.78,9.24zm-4.27,-15.22c1.44,0.58 2.87,1.32 4.23,2.25c-2.17,-0.54 -4.48,-0.87 -6.88,-0.99c0.98,-0.64 1.89,-1.08 2.65,-1.26zm-3.8,-1.19c-0.8,0.43 -1.63,0.97 -2.47,1.61c-0.38,-0.85 -0.78,-1.6 -1.21,-2.24c1.15,0.13 2.39,0.33 3.68,0.63zm-13.67,20.99c2.06,0.93 4.31,1.66 6.67,2.17c1.79,0.38 3.57,0.59 5.33,0.65c0.03,1.08 0.05,2.19 0.05,3.33c0,6.77 -0.54,12.39 -1.32,16.78c-2.57,-0.11 -5.22,-0.45 -7.88,-1.01c-3.56,-0.77 -6.92,-1.89 -9.97,-3.33c1,-4.5 2.86,-9.96 5.82,-16.01c0.41,-0.88 0.85,-1.74 1.3,-2.58zm-5.02,-6.64c-1.19,-1.12 -2.09,-2.27 -2.7,-3.44c2.69,-1.62 5.67,-2.94 8.85,-3.9c1.89,-0.57 3.8,-0.99 5.71,-1.28c-2.76,3.08 -5.5,7 -8.02,11.43c-1.44,-0.83 -2.73,-1.77 -3.84,-2.81zm16.9,6.57c-1.52,-0.06 -3.08,-0.25 -4.61,-0.58c-2.08,-0.44 -4.06,-1.08 -5.88,-1.88c2.68,-4.69 5.62,-8.77 8.51,-11.81c0.9,3.56 1.66,8.34 1.98,14.27zm-5.78,-21.76c0.49,0.01 1.09,0.59 1.72,1.73c-0.32,-0.14 -0.64,-0.27 -0.96,-0.39c-1.3,-0.5 -2.59,-0.88 -3.86,-1.16c1.02,-0.12 2.05,-0.18 3.1,-0.18zm-14.61,7.07c0.32,-1.49 1.22,-2.82 2.6,-3.93c3.35,-1 7.26,-0.76 11.36,0.74c-1.72,0.3 -3.45,0.7 -5.16,1.21c-3.17,0.95 -6.16,2.25 -8.9,3.84c-0.05,-0.63 -0.02,-1.25 0.1,-1.86zm-2.69,-1.04c-0.04,0.15 -0.08,0.29 -0.11,0.45c-0.29,1.36 -0.26,2.74 0.08,4.12c-3.09,2.13 -5.78,4.66 -7.93,7.49c-0.65,0.86 -1.23,1.74 -1.76,2.63c1.59,-5.89 5.06,-11.01 9.72,-14.69zm0.46,44.36c-4.8,-3.63 -8.38,-8.76 -10.08,-14.69c-0.24,-0.94 -0.4,-1.89 -0.46,-2.85c0.96,1.36 2.13,2.7 3.52,3.99c2.1,1.94 4.6,3.68 7.38,5.17c-0.56,3.18 -0.72,6.06 -0.36,8.38zm-5.06,-15.67c-2.44,-2.26 -4.12,-4.64 -4.98,-7.02c0.68,-2.66 1.99,-5.33 3.92,-7.88c1.83,-2.43 4.11,-4.61 6.73,-6.49c0.75,1.36 1.81,2.69 3.15,3.95c1.28,1.2 2.76,2.28 4.42,3.23c-0.46,0.86 -0.9,1.74 -1.33,2.63c-2.55,5.23 -4.63,10.83 -5.86,15.92c-2.27,-1.27 -4.32,-2.73 -6.05,-4.34zm21.96,21.32c-0.07,0 -0.14,0.01 -0.2,0.02c-4.28,-0.03 -8.33,-1.01 -11.96,-2.76c-0.08,-0.07 -0.18,-0.13 -0.28,-0.18c-1.6,-0.78 -2.24,-4.34 -1.41,-9.78c3.07,1.38 6.41,2.47 9.92,3.22c2.66,0.57 5.31,0.92 7.91,1.05c-1.27,5.53 -2.9,8.43 -3.98,8.43zm16.56,-5.43c-3.58,2.64 -7.81,4.45 -12.4,5.14c1.15,-1.99 2.08,-4.79 2.78,-8.08c4.06,-0.05 7.91,-0.64 11.32,-1.79c0.86,-0.29 1.67,-0.61 2.45,-0.96c-0.94,2.32 -2.33,4.25 -4.15,5.69zm5.24,-9.5c-1.29,0.79 -2.77,1.48 -4.45,2.04c-2.97,1 -6.31,1.54 -9.86,1.63c0.85,-5.11 1.26,-11.04 1.26,-16.81c0,-1.12 -0.01,-2.25 -0.05,-3.37c3.58,-0.24 6.89,-1.17 9.6,-2.73c2.51,4.97 3.86,10.21 3.85,15.15c0,1.44 -0.12,2.81 -0.35,4.09z" fill="url(#SVGID_1_)"/>
  <text stroke-width="0" xml:space="preserve" text-anchor="start" font-family="'Jura'" font-size="15" id="svg_3" y="52.41" x="72" stroke="#000" fill="#000000">BY TEAM THETA</text>
 </g>
</svg>